HIERARCHY
ROOT root
{
	OFFSET	0	13.1	24.9
	CHANNELS 6  Xposition Yposition Zposition Xrotation Yrotation Zrotation
	JOINT spine_1
	{
		OFFSET	0	9.99999	0
		CHANNELS 3  Xrotation Yrotation Zrotation
		JOINT spine_2
		{
			OFFSET	0	112	-10
			CHANNELS 3  Xrotation Yrotation Zrotation
			JOINT spine_3
			{
				OFFSET	0	206.5	19.3
				CHANNELS 3  Xrotation Yrotation Zrotation
				JOINT spine_4
				{
					OFFSET	0	110.4	14.6
					CHANNELS 3  Xrotation Yrotation Zrotation
					JOINT neck_1
					{
						OFFSET	0	71.8	-50.3
						CHANNELS 3  Xrotation Yrotation Zrotation
						JOINT neck_2
						{
							OFFSET	0	86.2	-25.8
							CHANNELS 3  Xrotation Yrotation Zrotation
							JOINT head_ee
							{
								OFFSET	0	179.8	-8.7
								CHANNELS 3  Xrotation Yrotation Zrotation
								End Site
								{
									OFFSET	1	0	0
								}
							}
						}
					}
					JOINT left_clavicle
					{
						OFFSET	-43.2	22.4	-70.8
						CHANNELS 3  Xrotation Yrotation Zrotation
						JOINT left_shoulder
						{
							OFFSET	-93.9	-5.79999	48.7
							CHANNELS 3  Xrotation Yrotation Zrotation
							JOINT left_elbow
							{
								OFFSET	-291.4	-30.8	15.2
								CHANNELS 3  Xrotation Yrotation Zrotation
								JOINT left_lowarm_twist
								{
									OFFSET	-110.7	-3.89999	13.6
									CHANNELS 3  Xrotation Yrotation Zrotation
									JOINT left_hand
									{
										OFFSET	-110.7	-3.89999	13.6
										CHANNELS 3  Xrotation Yrotation Zrotation
										JOINT left_ee
										{
											OFFSET	-80.8	-5.10001	12.1
											CHANNELS 3  Xrotation Yrotation Zrotation
											End Site
											{
												OFFSET	1	0	0
											}
										}
									}
								}
							}
						}
					}
					JOINT right_clavicle
					{
						OFFSET	43.2	22.4	-70.8
						CHANNELS 3  Xrotation Yrotation Zrotation
						JOINT right_shoulder
						{
							OFFSET	93.9	-5.79999	48.7
							CHANNELS 3  Xrotation Yrotation Zrotation
							JOINT right_elbow
							{
								OFFSET	291.4	-30.8	15.2
								CHANNELS 3  Xrotation Yrotation Zrotation
								JOINT right_lowarm_twist
								{
									OFFSET	110.7	-3.89999	13.6
									CHANNELS 3  Xrotation Yrotation Zrotation
									JOINT right_hand
									{
										OFFSET	110.7	-3.89999	13.6
										CHANNELS 3  Xrotation Yrotation Zrotation
										JOINT right_ee
										{
											OFFSET	80.8	-5.10001	12.1
											CHANNELS 3  Xrotation Yrotation Zrotation
											End Site
											{
												OFFSET	1	0	0
											}
										}
									}
								}
							}
						}
					}
				}
			}
		}
	}
	JOINT left_hip
	{
		OFFSET	-82.8	-127.5	0.300001
		CHANNELS 3  Xrotation Yrotation Zrotation
		JOINT left_knee
		{
			OFFSET	-28.2	-396.7	2.2
			CHANNELS 3  Xrotation Yrotation Zrotation
			JOINT left_ankle
			{
				OFFSET	-11.7	-411.3	35.4
				CHANNELS 3  Xrotation Yrotation Zrotation
				JOINT left_toes
				{
					OFFSET	0	-60	-88.6
					CHANNELS 3  Xrotation Yrotation Zrotation
					JOINT left_foot_ee
					{
						OFFSET	-22.5	-16.5	-42.2
						CHANNELS 3  Xrotation Yrotation Zrotation
						End Site
						{
							OFFSET	1	0	0
						}
					}
				}
			}
		}
	}
	JOINT right_hip
	{
		OFFSET	82.8	-127.5	0.300001
		CHANNELS 3  Xrotation Yrotation Zrotation
		JOINT right_knee
		{
			OFFSET	28.2	-396.7	2.2
			CHANNELS 3  Xrotation Yrotation Zrotation
			JOINT right_ankle
			{
				OFFSET	11.7	-411.3	35.4
				CHANNELS 3  Xrotation Yrotation Zrotation
				JOINT right_toes
				{
					OFFSET	0	-60	-88.6
					CHANNELS 3  Xrotation Yrotation Zrotation
					JOINT right_foot_ee
					{
						OFFSET	22.5	-16.5	-42.2
						CHANNELS 3  Xrotation Yrotation Zrotation
						End Site
						{
							OFFSET	1	0	0
						}
					}
				}
			}
		}
	}
}
MOTION
Frames: 12
Frame Time: 0.02
1652.28 719.56 -607.338 145.634 -72.1385 148.062 -3.36581 -0.283994 0.0154823 -3.36586 -0.284403 -0.00262045 -3.3659 -0.273362 -0.0785216 -3.3658 -0.282332 -0.0343634 -13.7718 1.21002 0.859741 -13.772 1.77816 1.19236 -0.0 0.0 -0.0 4.75026 20.7482 9.33367 -9.59568 -14.6778 67.8546 0.249504 -7.04602 0.0153609 -75.6945 -7.27358 5.31697 1.23853 11.807 12.8309 -0.0 0.0 -0.0 7.63323 10.6319 -14.7083 5.30483 21.11 -66.7169 1.97675 44.3937 -0.806635 83.4478 4.24165 8.79205 -0.101192 -17.4333 -6.47031 0.0 0.0 0.0 9.2635 31.2981 -20.5856 -18.1426 0.313121 2.75492 31.2837 3.24968 -4.02834 -39.6327 0.0 0.0 -0.0 0.0 -0.0 9.72863 34.8548 -11.9193 -18.7003 -0.308841 -2.84038 21.8707 -19.483 3.03182 -1.43251 0.0 0.0 0.0 0.0 0.0 
1658.13 719.621 -607.012 147.789 -72.1531 150.069 -3.4876 -0.0876647 0.213704 -3.48758 -0.101086 0.207693 -3.48794 -0.153277 0.172802 -3.48796 -0.124063 0.194841 -11.3705 0.917333 0.459773 -11.3709 1.43469 0.69184 -0.0 0.0 -0.0 4.7194 21.5637 9.26987 -9.63558 -14.5723 67.3113 0.222739 -6.29661 0.0122514 -76.7568 -7.40915 5.31165 1.87397 11.2277 16.8191 -0.0 0.0 -0.0 7.71123 11.128 -14.8559 3.90705 21.3941 -66.3221 2.23653 47.9242 -0.994097 85.2713 4.45904 8.87857 0.251122 -16.3847 -8.23642 0.0 0.0 0.0 8.6122 31.8981 -19.8059 -13.2718 0.315113 2.00782 30.9298 3.70232 -3.98994 -38.7718 0.0 0.0 -0.0 0.0 -0.0 9.85493 34.5343 -11.6876 -17.8979 -0.314736 -2.7174 22.9115 -20.2739 3.17122 -3.56668 0.0 0.0 0.0 0.0 0.0 
1662.69 719.06 -610.719 147.466 -72.8177 149.922 -3.34959 -0.0563244 0.175523 -3.34958 -0.0673793 0.171584 -3.34977 -0.110738 0.147371 -3.34979 -0.0860735 0.16301 -10.812 1.04979 0.61753 -10.812 1.57249 0.872839 -0.0 0.0 -0.0 4.54724 21.7635 9.01615 -9.84938 -14.6236 67.8586 0.260863 -7.36336 0.0167856 -77.0179 -7.44245 5.30995 2.79922 10.551 22.915 -0.0 0.0 -0.0 7.67136 11.7732 -14.7442 3.31427 20.3831 -65.6256 2.36285 49.484 -1.08901 85.2606 4.45775 8.87807 0.657727 -14.6357 -10.1297 0.0 0.0 0.0 8.4079 32.4353 -19.1884 -10.9093 0.293214 1.64602 30.1009 3.3686 -3.90334 -37.4215 0.0 0.0 -0.0 0.0 -0.0 9.03594 33.8985 -11.2357 -17.183 -0.318538 -2.60778 26.1096 -21.6268 3.58098 -5.19537 0.0 0.0 0.0 0.0 0.0 
1668.98 720.072 -613.142 147.653 -73.8216 150.516 -3.27951 -0.0672255 0.0635894 -3.27951 -0.0711356 0.0591828 -3.27959 -0.084306 0.0381492 -3.27958 -0.077223 0.050985 -9.89246 0.175031 1.01333 -9.88956 -0.357661 1.03196 -0.0 0.0 -0.0 4.30803 22.7207 8.65777 -9.61561 -14.6668 67.9204 0.282485 -7.96613 0.0196694 -77.6386 -7.52156 5.3053 3.08147 8.74025 24.3093 -0.0 0.0 -0.0 7.47104 11.1932 -14.3398 1.94068 20.5151 -64.9629 2.50887 51.171 -1.20142 85.2339 4.45456 8.87686 0.88426 -14.079 -11.3655 0.0 0.0 0.0 8.28182 33.2853 -18.7676 -8.33565 0.252403 1.25325 30.3309 4.3898 -3.92508 -36.336 0.0 0.0 -0.0 0.0 -0.0 8.5749 31.5615 -10.5927 -16.0364 -0.321777 -2.4319 25.933 -20.6284 3.54382 -8.21805 0.0 0.0 0.0 0.0 0.0 
1672.72 717.787 -616.43 150.088 -74.096 153.586 -3.17893 -0.0425868 -0.0689528 -3.17893 -0.0381129 -0.0715229 -3.17888 -0.0178732 -0.0790485 -3.17888 -0.0301331 -0.0752338 -10.4318 0.05618 1.86989 -10.4222 -1.14578 1.83161 -0.0 0.0 -0.0 4.27569 22.7453 8.61168 -9.74465 -14.7574 68.414 0.26465 -7.46906 0.0172744 -77.7734 -7.53874 5.30418 3.64083 9.10469 28.509 -0.0 0.0 -0.0 7.36964 11.4126 -14.1139 1.20019 20.7943 -64.7013 2.65329 52.7261 -1.31515 84.9615 4.42192 8.86436 1.01696 -13.2689 -11.9228 0.0 0.0 0.0 7.60308 33.1641 -18.2934 -5.48802 0.186738 0.821227 30.8911 3.81534 -3.98556 -35.1408 0.0 0.0 -0.0 0.0 -0.0 8.35089 31.4776 -10.6673 -13.8901 -0.31838 -2.10264 27.4869 -20.3743 3.72309 -9.5068 0.0 0.0 0.0 0.0 0.0 
1680.47 720.017 -620.574 152.153 -73.486 155.679 -3.14855 -0.0396168 -0.243436 -3.14852 -0.0240461 -0.245463 -3.14837 0.041497 -0.243122 -3.14845 0.00257975 -0.246625 -9.15198 -0.484293 2.10228 -9.13998 -2.35801 1.94988 -0.0 0.0 -0.0 4.18278 23.4662 8.47153 -9.91191 -13.5401 69.0804 0.280295 -7.90515 0.019367 -77.1385 -7.45783 5.30911 3.83151 8.00921 29.5721 -0.0 0.0 -0.0 7.1458 11.1596 -13.6476 0.0785325 20.7031 -64.079 2.71069 53.3149 -1.361 84.4145 4.35655 8.83878 1.07231 -12.7415 -12.0891 0.0 0.0 0.0 7.29488 33.5919 -18.105 -6.52979 0.213252 0.9789 30.0692 6.53138 -3.89555 -33.067 0.0 0.0 -0.0 0.0 -0.0 7.26273 30.2534 -9.95056 -12.591 -0.310333 -1.90348 28.4171 -19.6587 3.81917 -11.2178 0.0 0.0 0.0 0.0 0.0 
1687.15 718.492 -625.143 152.177 -73.0853 155.914 -3.31417 -0.0479227 -0.238653 -3.31414 -0.0326395 -0.241218 -3.31395 0.0327859 -0.241199 -3.31403 -0.00571831 -0.243349 -9.31583 -0.728483 2.59764 -9.29794 -3.15191 2.37385 -0.0 0.0 -0.0 4.11171 23.8622 8.36804 -9.72743 -13.2985 69.4936 0.335691 -9.44159 0.0277215 -76.0209 -7.31525 5.3156 4.31696 5.83125 32.5555 -0.0 0.0 -0.0 7.0347 11.6608 -13.3878 -1.2793 21.0479 -63.1174 2.78428 54.0467 -1.4203 83.8635 4.29096 8.81238 1.20778 -12.4733 -12.8701 0.0 0.0 0.0 6.62832 34.145 -17.8886 -6.64498 0.216008 0.996363 30.3506 6.65866 -3.92562 -31.381 0.0 0.0 -0.0 0.0 -0.0 6.74357 29.4109 -9.48288 -12.3665 -0.308484 -1.86908 29.8874 -19.3956 3.98131 -11.7888 0.0 0.0 0.0 0.0 0.0 
1690.2 717.055 -629.446 153.136 -72.8498 157.014 -3.34368 -0.0850377 -0.359847 -3.34361 -0.0619675 -0.364529 -3.34311 0.037547 -0.367847 -3.3433 -0.0210184 -0.36916 -8.9572 -1.22774 2.59921 -8.93974 -4.10091 2.27117 -0.0 0.0 -0.0 4.07436 24.274 8.31177 -9.63817 -12.9586 69.5356 0.388124 -10.8834 0.0369736 -75.6018 -7.26174 5.31731 4.51167 5.17048 33.8613 -0.0 0.0 -0.0 6.75245 12.0966 -12.7646 -2.02712 20.8192 -62.1746 2.84673 54.6481 -1.47104 83.5147 4.24957 8.79535 1.26282 -12.2586 -13.1511 0.0 0.0 0.0 6.47963 34.5339 -17.8576 -6.3292 0.20837 0.948504 29.6312 8.52846 -3.85173 -30.2067 0.0 0.0 -0.0 0.0 -0.0 5.65576 29.0905 -8.85505 -10.4625 -0.287395 -1.57771 32.9233 -19.0254 4.30564 -11.8819 0.0 0.0 0.0 0.0 0.0 
1694.81 716.454 -633.948 153.89 -72.3687 157.853 -3.38874 -0.115221 -0.455395 -3.38863 -0.0860098 -0.461804 -3.38775 0.0406969 -0.467978 -3.38806 -0.0337215 -0.468533 -8.73071 -1.79988 3.17231 -8.70466 -5.57762 2.71487 -0.0 0.0 -0.0 4.23559 24.2312 8.53301 -9.83681 -12.4275 69.9696 0.473006 -13.1875 0.0546765 -74.9071 -7.173 5.31927 4.55004 4.90691 34.0713 -0.0 0.0 -0.0 6.81073 11.8479 -12.9014 -2.4875 20.1376 -61.8528 2.73884 53.5979 -1.38362 82.9767 4.18594 8.76858 1.19337 -11.8563 -12.5544 0.0 0.0 0.0 6.03947 34.7373 -17.457 -7.35472 0.23221 1.10407 29.8656 7.19556 -3.87432 -29.9562 0.0 0.0 -0.0 0.0 -0.0 5.07393 28.6811 -8.41997 -10.0739 -0.281901 -1.51834 30.5736 -19.549 4.06016 -11.9804 0.0 0.0 0.0 0.0 0.0 
1700.87 718.167 -638.412 153.974 -71.9955 158.051 -3.33792 -0.158542 -0.533669 -3.33777 -0.124262 -0.542675 -3.33634 0.0249789 -0.556159 -3.33676 -0.0631683 -0.553125 -9.74062 -2.13294 3.85804 -9.70752 -6.63442 3.25086 -0.0 0.0 -0.0 4.44513 24.2106 8.82075 -10.0636 -12.5623 69.8146 0.534223 -14.823 0.0694932 -74.5819 -7.13146 5.31982 4.35879 5.79677 32.8733 -0.0 0.0 -0.0 6.82503 11.4585 -12.951 -3.02785 19.6027 -62.2715 2.7216 53.4251 -1.36976 81.9314 4.06302 8.71487 1.104 -11.5805 -11.8729 0.0 0.0 0.0 4.93207 35.0417 -16.7947 -7.0315 0.224997 1.055 29.5682 6.10413 -3.84173 -30.2644 0.0 0.0 -0.0 0.0 -0.0 5.30634 28.1879 -9.03532 -9.85492 -0.278628 -1.48489 28.4983 -20.9448 3.84983 -12.4361 0.0 0.0 0.0 0.0 0.0 
1709.5 717.932 -636.397 153.234 -72.01 157.591 -3.40465 -0.295126 -0.606192 -3.40448 -0.255955 -0.623742 -3.40131 -0.0795709 -0.669502 -3.40189 -0.184305 -0.648535 -11.8232 -1.95973 5.58972 -11.7594 -7.33012 4.84197 -0.0 0.0 -0.0 4.71681 23.5026 9.21533 -10.1964 -13.1115 69.3925 0.507007 -14.0988 0.0626968 -75.3829 -7.23379 5.31805 3.83168 8.68704 29.8012 -0.0 0.0 -0.0 6.71902 10.6842 -12.7628 -3.22791 19.1923 -63.2406 2.60806 52.2506 -1.27927 81.9269 4.06249 8.71463 0.413988 -12.6283 -7.82744 0.0 0.0 0.0 4.54314 35.3015 -17.3992 -6.83821 0.220551 1.02567 29.108 2.97427 -3.79806 -30.3991 0.0 0.0 -0.0 0.0 -0.0 5.86801 26.6736 -9.19179 -13.8453 -0.318177 -2.09575 29.0823 -20.0557 3.90145 -13.3463 0.0 0.0 0.0 0.0 0.0 
1711.56 717.954 -635.934 154.764 -71.8773 159.213 -3.21226 -0.324763 -0.781883 -3.21196 -0.274354 -0.800962 -3.20753 -0.0526984 -0.845002 -3.20848 -0.185485 -0.826077 -12.6806 -2.13059 6.29934 -12.605 -8.03635 5.41643 -0.0 0.0 -0.0 5.07015 23.2485 9.71954 -9.52826 -12.9253 68.4618 0.488955 -13.6158 0.0583731 -74.8264 -7.16269 5.31943 3.48282 9.89127 27.5987 -0.0 0.0 -0.0 5.91805 10.9097 -11.0592 -2.80799 19.1466 -65.0952 2.40672 50.0035 -1.12249 81.3901 3.99975 8.68618 0.280931 -13.6472 -7.37608 0.0 0.0 0.0 4.33177 35.9318 -17.4823 -6.09949 0.202648 0.913716 28.3255 1.66399 -3.71862 -30.5816 0.0 0.0 -0.0 0.0 -0.0 6.76897 24.5445 -9.19909 -15.3601 -0.322037 -2.32814 27.267 -21.318 3.71302 -14.3667 0.0 0.0 0.0 0.0 0.0 
